<svg width="18" height="19" viewBox="0 0 18 19" fill="none" xmlns="http://www.w3.org/2000/svg">
<path d="M9.01999 18.53C6.68999 18.53 4.35999 18.16 2.14999 17.42C1.30999 17.13 0.669991 16.54 0.389991 15.77C0.0999912 15 0.199991 14.15 0.659991 13.39L1.80999 11.48C2.04999 11.08 2.26999 10.28 2.26999 9.81004V6.92004C2.26999 3.20004 5.29999 0.170044 9.01999 0.170044C12.74 0.170044 15.77 3.20004 15.77 6.92004V9.81004C15.77 10.27 15.99 11.08 16.23 11.49L17.37 13.39C17.8 14.11 17.88 14.98 17.59 15.77C17.3 16.56 16.67 17.16 15.88 17.42C13.68 18.16 11.35 18.53 9.01999 18.53ZM9.01999 1.67004C6.12999 1.67004 3.76999 4.02004 3.76999 6.92004V9.81004C3.76999 10.54 3.46999 11.62 3.09999 12.25L1.94999 14.16C1.72999 14.53 1.66999 14.92 1.79999 15.25C1.91999 15.59 2.21999 15.85 2.62999 15.99C6.80999 17.39 11.24 17.39 15.42 15.99C15.78 15.87 16.06 15.6 16.19 15.24C16.32 14.88 16.29 14.49 16.09 14.16L14.94 12.25C14.56 11.6 14.27 10.53 14.27 9.80004V6.92004C14.27 4.02004 11.92 1.67004 9.01999 1.67004Z" fill="#2F2F2F"/>
</svg>
